<?xml version="1.0" standalone="no"?><!DOCTYPE svg PUBLIC "-//W3C//DTD SVG 1.1//EN" "http://www.w3.org/Graphics/SVG/1.1/DTD/svg11.dtd"><svg t="1710934782887" class="icon" viewBox="0 0 1025 1024" version="1.1" xmlns="http://www.w3.org/2000/svg" p-id="6552" xmlns:xlink="http://www.w3.org/1999/xlink" width="200.1953125" height="200"><path d="M850.406925 537.609107a38.856872 38.856872 0 0 0-38.856872 38.856872v372.005976H76.572323V213.348512h401.828626a38.856872 38.856872 0 0 0 38.856871-38.856872 38.225448 38.225448 0 0 0-38.856871-38.856872H76.572323A76.620894 76.620894 0 0 0-0.024286 212.231377v735.050587a76.620894 76.620894 0 0 0 76.596609 76.596608H811.62291a76.620894 76.620894 0 0 0 76.596609-76.596608V575.397415a37.156884 37.156884 0 0 0-37.812594-37.788308z" fill="#761111" p-id="6553"></path><path d="M1002.604435 106.929254L918.066453 22.391272a78.053741 78.053741 0 0 0-109.406379 0l-423.782759 423.709902a25.742678 25.742678 0 0 0-6.969951 10.952781l-107.414965 251.646816a34.849757 34.849757 0 0 0 6.969951 37.788308 32.809771 32.809771 0 0 0 37.788308 6.969951l251.646816-106.419258a41.066856 41.066856 0 0 0 10.952781-6.969951L1002.555864 215.364212a76.839464 76.839464 0 0 0 0.048571-108.434958z m-473.568125 472.45099l-147.218973 62.656706 62.656705-147.218973L741.874825 197.417194l84.537982 84.537982-297.279355 297.425068zM947.79196 160.624594l-66.639535 66.639535-84.537982-84.537982 66.688107-66.639535z" fill="currentColor" p-id="6554"></path></svg>