<?xml version="1.0" standalone="no"?><!DOCTYPE svg PUBLIC "-//W3C//DTD SVG 1.1//EN" "http://www.w3.org/Graphics/SVG/1.1/DTD/svg11.dtd"><svg t="1710935207502" class="icon" viewBox="0 0 1024 1024" version="1.1" xmlns="http://www.w3.org/2000/svg" p-id="7763" xmlns:xlink="http://www.w3.org/1999/xlink" width="200" height="200"><path d="M450.2 718l-90-46.9 115.4-373.7c15.4-49.9 61.9-83.6 115.1-83.5h6.3c41 0.1 79.7 20.5 102.9 54.4 30.1 43.8 28.4 101.3-4.2 142.1L450.2 718z" fill="#7EC6FF" p-id="7764"></path><path d="M457.1 750.8L329 684.1l121.8-394.4C469.6 228.8 525.6 188 590.3 188h6.8c49.6 0.2 96.1 24.7 124.2 65.6 36.7 53.5 34.6 123-5.3 173L457.1 750.8z m-65.8-92.7l51.9 27.1 232.2-290.9c25.6-32 26.8-76.8 3.1-111.3-18.5-26.9-49-43-81.6-43.1h-6.6c-41.8 0-77.9 26.2-90 65.2l-109 353z" fill="#2854FD" p-id="7765"></path><path d="M531.7 760.5L448 716.9l249.5-312.4c30.6-38.1 83-51.9 129.7-34.1l5.6 2.1c36 13.7 63.1 44.2 71.9 81.2 11.5 48-9.6 97.2-52.2 121.8l-320.8 185z" fill="#7EC6FF" p-id="7766"></path><path d="M532.3 790l-124.2-64.7 269.1-337c37.8-47.1 101.7-64.1 159.2-42.1l5.6 2.1c44.1 16.8 77 54 87.9 99.4 14.3 59.4-11.6 119.8-64.4 150.3L532.3 790z m-44.4-81.6l43.2 22.5L839.7 553c32.7-18.9 48.8-56.3 39.9-93.3-6.9-28.8-27.8-52.4-56-63.1l-5.6-2.1c-36.3-13.9-76.6-3.4-100.3 26.1L487.9 708.4z" fill="#2854FD" p-id="7767"></path><path d="M358.6 661.3l-82.5-34-24.9-367.2c-3.3-49 25.8-93.9 72.1-111.1l5.5-2c35.7-13.2 76.1-7.8 107.6 14.4 40.8 28.9 58.6 80.1 44 126.7L358.6 661.3z" fill="#7EC6FF" p-id="7768"></path><path d="M374.5 695.9l-123.2-50.8-25.9-383.2c-4.1-60.8 31.6-115.9 88.9-137.1l5.5-2c43.8-16.2 93-9.7 131.5 17.5 50.2 35.5 71.8 98 53.7 155.6l-130.5 400z m-73.6-86.4l41.7 17.2L455.7 280c11.2-35.8-2.5-75.1-34.3-97.5-24.6-17.4-55.9-21.6-83.6-11.3l-5.5 2c-35.6 13.2-57.8 47.4-55.2 85.1l23.8 351.2z" fill="#2854FD" p-id="7769"></path><path d="M282.8 633.8c-13.6 11.7-25.4 26-34.2 42.9-37.8 72.5-8.2 162.5 66 201.2s165 11.3 202.7-61.2c8.8-16.9 13.8-34.7 15.6-52.6L282.8 633.8z" fill="#FFFFFF" p-id="7770"></path><path d="M385.6 921.2c-28 0-56.4-6.6-83-20.4-86.8-45.2-121.3-151.2-77-236.2 10-19.2 23.6-36.2 40.3-50.5l13.3-11.4 281.2 146.6-1.7 17.4c-2.2 21.9-8.4 42.8-18.4 62-30.7 58.9-91.4 92.5-154.7 92.5z m-98.1-255.8c-6.2 7.1-11.6 14.8-15.9 23.2-31.1 59.7-6.4 134.3 55 166.3s136.7 9.5 167.8-50.2c4.3-8.3 7.6-17.1 9.9-26.3l-216.8-113z" fill="currentColor" p-id="7771"></path></svg>