<?xml version="1.0" standalone="no"?><!DOCTYPE svg PUBLIC "-//W3C//DTD SVG 1.1//EN" "http://www.w3.org/Graphics/SVG/1.1/DTD/svg11.dtd"><svg t="1710934739466" class="icon" viewBox="0 0 1024 1024" version="1.1" xmlns="http://www.w3.org/2000/svg" p-id="5533" xmlns:xlink="http://www.w3.org/1999/xlink" width="200" height="200"><path d="M104.969 86.486c-1.1 0-2 0.9-2 2V724.88c0 1.1 0.9 2 2 2h818.063c1.1 0 2-0.9 2-2V88.486c0-1.1-0.9-2-2-2H104.969z m735.155 556.77c0 1.1-0.9 2-2 2H189.876c-1.1 0-2-0.9-2-2V170.109c0-1.1 0.9-2 2-2h648.248c1.1 0 2 0.9 2 2v473.147z" fill="#F29600" p-id="5534"></path><path d="M958 934.04a2.392 2.392 0 0 1-2.385 2.385H72.384A2.39 2.39 0 0 1 70 934.04v-81.859a2.391 2.391 0 0 1 2.384-2.385h883.231a2.392 2.392 0 0 1 2.385 2.385v81.859z" fill="#F29600" p-id="5535"></path><path d="M299.595 590.319c-5.465 0-10.859-1.543-15.58-4.489-13.699-8.694-17.815-26.847-9.227-40.511l94.364-149.513a29.218 29.218 0 0 1 24.133-13.699c10.115 0 19.341 4.808 24.736 12.563l52.381 75.059 69.167-66.719c10.967-10.504 29.457-10.594 40.493-0.213l41.025 38.682 79.991-200.068c5.926-14.674 23.423-22.305 38.187-16.342 7.274 2.928 12.953 8.481 16.04 15.686 3.087 7.204 3.195 15.171 0.284 22.447l-96.033 240.081a29.41 29.41 0 0 1-20.901 17.764c-9.548 2.074-19.484-0.693-26.476-7.347l-52.027-49.046-73.852 71.173c-6.175 5.944-14.585 8.96-23.246 8.001-8.481-0.744-16.218-5.27-21.151-12.419l-46.738-66.95-70.694 112.18c-5.429 8.57-14.726 13.68-24.876 13.68z m94.329-192.224c-4.756 0.088-8.872 2.413-11.25 6.229L288.31 553.836c-3.904 6.229-2.024 14.517 4.187 18.473 6.104 3.763 14.657 1.829 18.455-4.205l83.541-132.55 60.544 86.752c2.236 3.247 5.713 5.27 9.546 5.607 5.003 0.123 8.163-1.207 10.646-3.603l84.784-81.73 63.134 59.498c3.194 3.051 7.772 4.258 12.03 3.372 4.294-0.977 7.879-4.011 9.511-8.109l96.033-240.082c1.348-3.318 1.314-6.938-0.106-10.221-1.384-3.265-3.974-5.803-7.311-7.133-6.707-2.644-14.692 0.763-17.39 7.47l-88.722 221.858-58.096-54.812c-5.003-4.685-13.45-4.685-18.419 0.106l-82.688 79.708-63.099-90.425c-2.413-3.479-6.708-5.715-10.966-5.715z" fill="#F29600" p-id="5536"></path><path d="M299.595 582.317c-3.868 0-7.808-1.048-11.392-3.265-9.937-6.335-12.918-19.483-6.637-29.474l94.329-149.515a21.253 21.253 0 0 1 17.567-9.954c6.743-0.178 13.876 3.247 17.993 9.12l57.74 82.742 75.946-73.195c8.198-7.896 21.151-7.985 29.456-0.16l49.543 46.739 84.356-210.981c4.436-10.948 16.858-16.253 27.788-11.888 10.931 4.383 16.253 16.804 11.889 27.734l-96.068 240.1a21.404 21.404 0 0 1-15.189 12.918 21.244 21.244 0 0 1-19.234-5.323l-57.599-54.298-79.317 76.443c-4.507 4.349-10.647 6.459-16.893 5.82a20.924 20.924 0 0 1-15.402-9.015l-53.659-76.868-77.117 122.384c-4.047 6.44-11.003 9.936-18.1 9.936" fill="currentColor" p-id="5537"></path></svg>